<?xml version="1.0" encoding="UTF-8"?>
<svg  viewBox="0 0 44 44" version="1.1" xmlns="http://www.w3.org/2000/svg" xmlns:xlink="http://www.w3.org/1999/xlink">
    <!-- Generator: Sketch 49.2 (51160) - http://www.bohemiancoding.com/sketch -->
    <title>Share</title>
    <desc>Created with Sketch.</desc>
    <defs></defs>
    <g id="Page-1" stroke="none" stroke-width="1" fill="none" fill-rule="evenodd">
        <g id="Social-Icons---Isolated" transform="translate(-54.000000, -393.000000)" fill="#4A4A4A">
            <path d="M61.855,422.51 C63.681,422.51 65.363,421.885 66.697,420.838 L81.603,428.197 C81.603,428.227 81.601,428.254 81.601,428.283 C81.601,432.621 85.119,436.139 89.457,436.139 C93.794,436.139 97.312,432.621 97.312,428.283 C97.312,423.946 93.794,420.428 89.457,420.428 C87.148,420.428 85.074,421.422 83.638,423.006 L69.582,416.067 C69.664,415.61 69.71,415.139 69.71,414.656 C69.71,414.559 69.707,414.463 69.703,414.367 L84.244,406.731 C85.632,407.961 87.457,408.711 89.457,408.711 C93.796,408.711 97.312,405.194 97.312,400.856 C97.312,396.516 93.794,393 89.457,393 C85.119,393 81.601,396.516 81.601,400.856 C81.601,401.18 81.625,401.498 81.662,401.811 L67.533,409.231 C66.103,407.735 64.089,406.801 61.855,406.801 C57.517,406.801 54,410.319 54,414.656 C54,418.994 57.517,422.51 61.855,422.51" id="Share"></path>
        </g>
    </g>
</svg>